<svg width="27" height="28" viewBox="0 0 27 28" fill="none" xmlns="http://www.w3.org/2000/svg">
<path d="M1.48536 23.0921C1.48536 22.2828 1.79945 21.5228 2.37027 20.9519C2.94311 20.3794 3.70314 20.0635 4.5101 20.0635H26.0641C26.1997 20.0635 26.3252 20.0244 26.4344 19.961C26.7586 19.8813 27 19.591 27 19.2421V0.742352C27 0.33236 26.6677 0 26.2577 0H4.52413C2.02967 0 0 2.02938 0 4.52413V22.1404C0 22.2395 0.0202826 22.3334 0.0556319 22.4198C0.0228899 22.6408 0.000869248 22.8645 0.000869248 23.092C0.000869248 25.5864 2.02995 27.6155 4.52441 27.6155H26.0636C26.4736 27.6155 26.8059 27.2832 26.8059 26.8732C26.8059 26.4632 26.4736 26.1308 26.0636 26.1308H4.52441C2.84848 26.1308 1.48536 24.7677 1.48536 23.0921ZM25.5154 18.5792H6.73775V1.48435H25.5154V18.5792ZM1.48536 4.52407C1.48536 2.84785 2.84893 1.48435 4.52508 1.48435H5.25351V18.5792H4.51057C3.38139 18.5792 2.31778 18.9976 1.4856 19.7533L1.48536 4.52407Z" fill="#A0B6C6"/>
</svg>
