<svg width="28" height="27" viewBox="0 0 28 27" fill="none" xmlns="http://www.w3.org/2000/svg">
<path d="M4.81523 26.9994H12.1569C12.6709 26.9994 13.0872 26.5979 13.0872 26.1013V15.2774C13.0872 14.7817 12.6709 14.3803 12.1569 14.3803H0.931811C0.417754 14.3803 0.000433814 14.7817 0.000433814 15.2774V22.3567C0.000433814 24.9123 2.16555 27 4.81585 27L4.81523 26.9994ZM11.2251 25.2042H4.81523C3.19253 25.2042 1.86157 23.921 1.86157 22.3561V16.1752H11.225V25.2041L11.2251 25.2042ZM15.8429 26.9994H23.1846C25.8349 26.9994 28 24.9117 28 22.3561V15.2768C28 14.7811 27.5837 14.3797 27.0686 14.3797H15.8436C15.3295 14.3797 14.9122 14.7811 14.9122 15.2768V26.1007C14.9122 26.5964 15.3293 26.9988 15.8436 26.9988L15.8429 26.9994ZM23.1846 25.2042H16.7747V16.1754H26.1381V22.3562C26.1381 23.9209 24.8074 25.2043 23.1845 25.2043L23.1846 25.2042ZM28 11.7226V4.64334C28 2.08775 25.8349 0 23.1846 0H15.8429C15.3289 0 14.9116 0.401463 14.9116 0.898094V11.722C14.9116 12.2177 15.3286 12.6201 15.8429 12.6201H27.068C27.5821 12.6201 27.9994 12.2179 27.9994 11.722L28 11.7226ZM26.1382 4.64334V10.8242H16.7748V1.79535H23.1847C24.8074 1.79535 26.1384 3.07856 26.1384 4.64346L26.1382 4.64334ZM12.1571 0H4.81542C2.16512 0 0 2.08775 0 4.64334V11.7226C0 12.2183 0.416338 12.6207 0.931376 12.6207H12.1564C12.6705 12.6207 13.0868 12.2185 13.0868 11.7226V0.898693C13.0868 0.403008 12.6705 0.000598907 12.1564 0.000598907L12.1571 0ZM4.81542 1.79523H11.2253V10.824H1.86188V4.64322C1.86188 3.0785 3.19265 1.79511 4.81554 1.79511L4.81542 1.79523Z" fill="#F17051"/>
</svg>
