<svg width="31" height="33" viewBox="0 0 31 33" fill="none" xmlns="http://www.w3.org/2000/svg">
<path d="M24.1598 31.6809V27.3915H22.7684V30.9851H1.39124V1.36022H14.7603V8.66565V8.66536C14.7603 8.85015 14.8334 9.02691 14.964 9.15746C15.0945 9.28802 15.2716 9.36119 15.4561 9.36119H22.7615V13.3269H24.1528V8.65498C24.152 8.47421 24.0808 8.30061 23.9546 8.17149L15.9537 0.19856L15.9534 0.198273C15.8401 0.0860835 15.6915 0.0160649 15.5325 0H0.695828C0.311616 0 0 0.311616 0 0.695828V31.6811C0 31.8656 0.0734567 32.0426 0.203724 32.1729C0.334277 32.3035 0.511321 32.3766 0.69582 32.3766H23.4643C23.6491 32.3766 23.8258 32.3035 23.9564 32.1729C24.0869 32.0426 24.1601 31.8656 24.1601 31.6811L24.1598 31.6809ZM16.1589 2.34108L21.7979 7.97656H16.1518L16.1589 2.34108Z" fill="#A0B6C6"/>
<path d="M27.802 13.5571C27.5492 13.2685 27.1102 13.2389 26.821 13.4911L17.1358 21.9724C17.0227 22.0714 16.9447 22.2042 16.9134 22.3514L16.1376 26.0214C16.0939 26.2291 16.1476 26.4455 16.283 26.6087C16.4185 26.772 16.6211 26.8644 16.8334 26.8598H16.8715L20.6738 26.644V26.6443C20.8282 26.6354 20.9751 26.5755 21.0913 26.4739L30.7625 17.9926C31.0515 17.7398 31.081 17.3008 30.8285 17.0116L27.802 13.5571ZM20.3396 25.2705L17.6854 25.4234L18.2245 22.8665L27.2141 14.9978L29.3222 17.4052L20.3396 25.2705Z" fill="#A0B6C6"/>
<path d="M5.05388 13.3555C4.64388 13.3555 4.31152 13.6878 4.31152 14.0978C4.31152 14.5078 4.64387 14.8402 5.05388 14.8402L15.8824 14.8399C15.9453 14.8399 16.0053 14.8298 16.0638 14.815C16.3857 14.7339 16.6248 14.4447 16.6248 14.0976C16.6248 13.7504 16.3854 13.4613 16.0638 13.3801C16.0056 13.3654 15.9453 13.3552 15.8824 13.3552L5.05388 13.3555Z" fill="#A0B6C6"/>
<path d="M5.05388 18.0003C4.64388 18.0003 4.31152 18.3326 4.31152 18.7426C4.31152 19.1526 4.64387 19.485 5.05388 19.485L15.8824 19.4847C15.9453 19.4847 16.0053 19.4745 16.0638 19.4598C16.3857 19.3786 16.6248 19.0895 16.6248 18.7423C16.6248 18.3952 16.3854 18.1061 16.0638 18.0249C16.0056 18.0101 15.9453 18 15.8824 18L5.05388 18.0003Z" fill="#A0B6C6"/>
</svg>
