<svg width="36" height="36" viewBox="0 0 36 36" fill="none" xmlns="http://www.w3.org/2000/svg">
<path d="M6.86532 31.9091H8.48086C8.48086 32.997 9.38494 33.8789 10.4998 33.8789C11.6151 33.8789 12.5191 32.997 12.5191 31.9091H14.1347C14.1347 33.8672 12.5075 35.4545 10.4998 35.4545C8.49254 35.4545 6.86532 33.8672 6.86532 31.9091ZM20.9997 29.1511V29.5462C20.9997 30.419 20.2765 31.1212 19.3838 31.1212H1.61588C0.723475 31.1212 0 30.4164 0 29.5462V29.1511C0 27.7633 1.05332 26.615 2.42301 26.4223V21.6665C2.42301 17.314 6.0385 13.7878 10.4998 13.7878C14.9614 13.7878 18.577 17.315 18.577 21.6665V26.4223C19.9487 26.6143 21 27.7617 21 29.1511H20.9997ZM19.3841 29.1511C19.3841 28.4977 18.8425 27.9697 18.169 27.9697C17.5017 27.9697 16.9611 27.4387 16.9611 26.7908V21.6665C16.9611 18.1851 14.0688 15.3637 10.4996 15.3637C6.93039 15.3637 4.03803 18.1845 4.03803 21.6665V26.7908C4.03803 27.4416 3.49507 27.9697 2.83053 27.9697C2.15899 27.9697 1.61502 28.4993 1.61502 29.1511V29.5456H19.3838L19.3841 29.1511Z" fill="#373F66"/>
<rect x="12" y="1" width="23" height="22.6212" rx="2" fill="#59C7AB" stroke="#E4E9EE" stroke-width="2"/>
<path d="M22.3271 14.8783V15.8939H17.5127V15.0247L19.8223 12.5296C20.0632 12.2562 20.2536 12.0186 20.3936 11.8167C20.5335 11.6149 20.6328 11.4326 20.6914 11.2699C20.7533 11.1039 20.7842 10.946 20.7842 10.7962C20.7842 10.5781 20.7451 10.3877 20.667 10.2249C20.5889 10.0589 20.4749 9.93035 20.3252 9.8392C20.1787 9.74806 19.998 9.70248 19.7832 9.70248C19.5456 9.70248 19.3421 9.75782 19.1729 9.8685C19.0068 9.97592 18.8799 10.1257 18.792 10.3177C18.7074 10.5098 18.665 10.7295 18.665 10.9769H17.3711C17.3711 10.557 17.4688 10.1745 17.6641 9.82944C17.8594 9.48113 18.1393 9.20281 18.5039 8.99448C18.8685 8.78614 19.3014 8.68198 19.8027 8.68198C20.291 8.68198 20.7044 8.76336 21.043 8.92612C21.3815 9.08562 21.6387 9.31349 21.8145 9.60971C21.9902 9.90593 22.0781 10.2591 22.0781 10.6693C22.0781 10.8971 22.0407 11.1218 21.9658 11.3431C21.891 11.5645 21.7852 11.7842 21.6484 12.0023C21.515 12.2171 21.3555 12.4352 21.1699 12.6566C20.9844 12.8779 20.7777 13.1042 20.5498 13.3353L19.1631 14.8783H22.3271ZM24.5049 12.6224L23.4746 12.3734L23.8701 8.78452H27.7812V9.85385H24.9395L24.7539 11.514C24.8548 11.4522 25.0013 11.3903 25.1934 11.3285C25.3887 11.2634 25.6084 11.2308 25.8525 11.2308C26.1911 11.2308 26.4938 11.2861 26.7607 11.3968C27.0277 11.5042 27.2539 11.6605 27.4395 11.8656C27.6283 12.0706 27.7699 12.3213 27.8643 12.6175C27.9619 12.9105 28.0107 13.2425 28.0107 13.6136C28.0107 13.9391 27.9619 14.2451 27.8643 14.5316C27.7699 14.8148 27.625 15.0671 27.4297 15.2884C27.2344 15.5065 26.9886 15.679 26.6924 15.806C26.3962 15.9297 26.0479 15.9915 25.6475 15.9915C25.3447 15.9915 25.0534 15.9476 24.7734 15.8597C24.4967 15.7686 24.2477 15.6367 24.0264 15.4642C23.805 15.2884 23.6276 15.0736 23.4941 14.8197C23.3639 14.5658 23.2923 14.2744 23.2793 13.9456H24.5537C24.5765 14.1637 24.6351 14.3493 24.7295 14.5023C24.8239 14.6553 24.9476 14.7725 25.1006 14.8539C25.2568 14.9352 25.4375 14.9759 25.6426 14.9759C25.8281 14.9759 25.9876 14.9417 26.1211 14.8734C26.2578 14.8018 26.3701 14.7025 26.458 14.5755C26.5459 14.4486 26.611 14.2988 26.6533 14.1263C26.6956 13.9538 26.7168 13.765 26.7168 13.5599C26.7168 13.3613 26.6924 13.1807 26.6436 13.0179C26.5947 12.8519 26.5199 12.7087 26.4189 12.5882C26.318 12.4678 26.1911 12.375 26.0381 12.3099C25.8883 12.2448 25.7126 12.2122 25.5107 12.2122C25.2406 12.2122 25.0322 12.2529 24.8857 12.3343C24.7425 12.4157 24.6156 12.5117 24.5049 12.6224Z" fill="white"/>
</svg>
